<svg xmlns="http://www.w3.org/2000/svg" width="37" height="37"><path fill="#686F75" fill-rule="evenodd" d="M18.048.2C8.092.2.022 8.27.022 18.225c0 7.637 4.748 14.16 11.455 16.784-.158-1.427-.3-3.613.062-5.171.329-1.41 2.114-8.958 2.114-8.958s-.54-1.082-.54-2.678c0-2.5 1.454-4.377 3.26-4.377 1.54 0 2.283 1.156 2.283 2.538 0 1.548-.982 3.86-1.492 6.003-.429 1.794.902 3.255 2.669 3.255 3.2 0 5.666-3.375 5.666-8.25 0-4.302-3.102-7.322-7.53-7.322-5.128 0-8.134 3.853-8.134 7.818 0 1.553.592 3.222 1.337 4.122a.55.55 0 0 1 .127.518c-.135.564-.44 1.803-.502 2.05-.08.338-.258.407-.603.248-2.248-1.038-3.658-4.328-3.658-6.986 0-5.678 4.132-10.905 11.909-10.905 6.252 0 11.115 4.461 11.115 10.41 0 6.218-3.92 11.22-9.372 11.22-1.826 0-3.54-.945-4.147-2.073l-1.127 4.283c-.404 1.571-1.51 3.536-2.252 4.73a18.07 18.07 0 0 0 5.338.805c9.935 0 18.022-8.068 18.022-18.025C36.022 8.304 27.935.239 18 .239L18.048.2z"/></svg>