<svg xmlns="http://www.w3.org/2000/svg" width="20" height="20"><path fill="#879299" d="M13.52 13.52a7.14 7.14 0 0 1-5.08 2.105 7.136 7.136 0 0 1-5.08-2.105 7.193 7.193 0 0 1 0-10.161 7.16 7.16 0 0 1 5.08-2.101c1.84 0 3.68.7 5.08 2.1a7.193 7.193 0 0 1 0 10.162m6.296 5.406l-4.983-4.983c2.855-3.314 2.719-8.331-.423-11.474-3.291-3.292-8.65-3.292-11.94 0-3.293 3.292-3.293 8.65 0 11.941a8.386 8.386 0 0 0 5.97 2.473 8.37 8.37 0 0 0 5.503-2.05l4.983 4.983a.627.627 0 0 0 .89 0 .63.63 0 0 0 0-.89"/></svg>