<svg xmlns="http://www.w3.org/2000/svg" width="36" height="36"><path fill="#686F75" d="M18 0c-4.89 0-5.5.022-7.42.108C8.661.198 7.356.5 6.21.945a8.815 8.815 0 0 0-3.189 2.076c-1 1-1.618 2.004-2.076 3.189C.5 7.357.196 8.662.108 10.58.018 12.5 0 13.11 0 18c0 4.89.023 5.5.108 7.42.09 1.916.392 3.222.837 4.37a8.827 8.827 0 0 0 2.076 3.189 8.802 8.802 0 0 0 3.189 2.076c1.149.444 2.454.748 4.37.837 1.92.09 2.53.108 7.42.108 4.89 0 5.5-.023 7.42-.108 1.916-.09 3.223-.393 4.37-.837a8.847 8.847 0 0 0 3.189-2.076 8.79 8.79 0 0 0 2.076-3.189c.444-1.148.749-2.454.837-4.37.09-1.92.108-2.53.108-7.42 0-4.89-.023-5.5-.108-7.42-.09-1.916-.393-3.224-.837-4.37a8.834 8.834 0 0 0-2.076-3.189A8.77 8.77 0 0 0 29.79.945C28.643.5 27.336.197 25.42.108 23.5.018 22.89 0 18 0zm0 3.24c4.804 0 5.377.024 7.275.106 1.755.083 2.707.374 3.34.623a5.59 5.59 0 0 1 2.074 1.344 5.56 5.56 0 0 1 1.343 2.072c.247.633.54 1.585.62 3.34.086 1.899.105 2.469.105 7.275 0 4.806-.023 5.378-.111 7.275-.092 1.755-.384 2.708-.632 3.34-.335.844-.718 1.44-1.348 2.074-.629.628-1.236 1.018-2.07 1.343-.63.247-1.597.54-3.352.62-1.911.085-2.474.105-7.289.105-4.817 0-5.379-.023-7.288-.111-1.757-.092-2.725-.384-3.354-.632-.854-.336-1.44-.718-2.069-1.348-.631-.628-1.035-1.236-1.35-2.07-.247-.63-.538-1.598-.63-3.352-.068-1.89-.091-2.474-.091-7.267s.023-5.379.091-7.291c.092-1.755.383-2.721.63-3.351.315-.855.719-1.44 1.35-2.072.629-.628 1.215-1.033 2.069-1.346.63-.25 1.576-.542 3.331-.632 1.912-.068 2.475-.09 7.289-.09L18 3.24zm0 5.517A9.242 9.242 0 0 0 8.757 18 9.242 9.242 0 0 0 18 27.243 9.242 9.242 0 0 0 27.243 18 9.242 9.242 0 0 0 18 8.757zM18 24c-3.315 0-6-2.685-6-6s2.685-6 6-6 6 2.685 6 6-2.685 6-6 6zM29.769 8.393c0 1.192-.969 2.16-2.16 2.16a2.162 2.162 0 0 1-2.16-2.16 2.161 2.161 0 0 1 4.32 0z"/></svg>