<svg xmlns="http://www.w3.org/2000/svg" width="20" height="20"><path d="M10 15.294a5.294 5.294 0 1 0 0-10.588 5.294 5.294 0 0 0 0 10.588zM10.588.588a.588.588 0 0 0-1.176 0v1.177a.588.588 0 0 0 1.176 0V.588zm6.483 3.173a.588.588 0 0 0-.832-.832l-.832.832a.588.588 0 0 0 .832.832l.832-.832zm2.34 6.827a.588.588 0 0 0 0-1.176h-1.176a.588.588 0 0 0 0 1.176h1.177zm-3.172 6.483a.588.588 0 0 0 .832-.832l-.832-.832a.588.588 0 1 0-.832.832l.832.832zm-6.827 2.34a.588.588 0 0 0 1.176 0v-1.176a.588.588 0 0 0-1.176 0v1.177zM2.929 16.24a.588.588 0 0 0 .832.832l.832-.832a.588.588 0 0 0-.832-.832l-.832.832zM.589 9.412a.588.588 0 0 0 0 1.176h1.176a.588.588 0 0 0 0-1.176H.588zM3.76 2.929a.588.588 0 0 0-.832.832l.832.832a.588.588 0 0 0 .832-.832l-.832-.832z"/></svg>