<svg xmlns="http://www.w3.org/2000/svg" width="46" height="27"><path fill="#686F75" fill-rule="evenodd" d="M22.426 26.21h2.754s.83-.09 1.254-.544c.402-.424.402-1.208.402-1.208s-.059-3.693 1.666-4.235c1.7-.539 3.856 3.565 6.154 5.142 1.756 1.206 3.077.947 3.077.947l6.154-.084s3.224-.202 1.7-2.734c-.117-.2-.864-1.868-4.544-5.29-3.857-3.567-3.339-2.992 1.295-9.175 2.816-3.766 3.968-6.068 3.594-7.045-.318-.92-2.415-.692-2.415-.692l-6.904.059s-.517-.06-.89.173c-.375.228-.603.749-.603.749s-1.096 2.93-2.56 5.405c-3.111 5.23-4.347 5.518-4.836 5.173-1.158-.75-.86-3.028-.86-4.661 0-5.062.774-7.188-1.498-7.734-.747-.174-1.305-.288-3.23-.318-2.472-.027-4.557.019-5.74.596-.776.389-1.38 1.25-1.033 1.294.46.057 1.493.28 2.04 1.029.718.97.688 3.136.688 3.136s.404 5.972-.947 6.714c-.949.502-2.214-.537-4.974-5.283-1.409-2.415-2.474-5.117-2.474-5.117s-.202-.49-.574-.778c-.435-.317-1.067-.432-1.067-.432l-6.584.058s-.977.03-1.32.46C-.169 2.189.12 2.994.12 2.994s5.148 12.05 10.986 18.118c5.348 5.562 11.416 5.204 11.416 5.204l-.096-.106z"/></svg>