<?xml version="1.0" encoding="UTF-8"?>
<svg width="22px" height="22px" viewBox="0 0 22 22" version="1.1" xmlns="http://www.w3.org/2000/svg" xmlns:xlink="http://www.w3.org/1999/xlink">
    <!-- Generator: Sketch 49 (51002) - http://www.bohemiancoding.com/sketch -->
    <title>Shape</title>
    <desc>Created with Sketch.</desc>
    <defs></defs>
    <g id="-" stroke="none" stroke-width="1" fill="none" fill-rule="evenodd">
        <g id="10-1-Галерея-Dark" transform="translate(-1248.000000, -734.000000)" fill="#FFFFFF" fill-rule="nonzero">
            <path d="M1256.52444,734 C1251.82629,734 1248,737.826292 1248,742.524438 C1248,747.222584 1251.82629,751.048876 1256.52444,751.048876 C1258.5775,751.048876 1260.46427,750.313387 1261.93814,749.098224 L1268.58927,755.757941 C1268.79803,755.966704 1269.10231,756.048236 1269.38749,755.971823 C1269.67266,755.89541 1269.89541,755.672663 1269.97182,755.387487 C1270.04824,755.102311 1269.9667,754.798031 1269.75794,754.589268 L1263.09822,747.938144 C1264.31339,746.464268 1265.04888,744.577497 1265.04888,742.524438 C1265.04888,737.826292 1261.22258,734 1256.52444,734 Z M1256.52444,735.649891 C1260.33092,735.649891 1263.39899,738.717959 1263.39899,742.524438 C1263.39899,746.330917 1260.33092,749.398985 1256.52444,749.398985 C1252.71796,749.398985 1249.64989,746.330917 1249.64989,742.524438 C1249.64989,738.717959 1252.71796,735.649891 1256.52444,735.649891 Z" id="Shape"></path>
        </g>
    </g>
</svg>